<?xml version="1.0" encoding="utf-8"?>
<!-- Generator: Adobe Illustrator 15.1.0, SVG Export Plug-In  -->
<!DOCTYPE svg PUBLIC "-//W3C//DTD SVG 1.1//EN" "http://www.w3.org/Graphics/SVG/1.1/DTD/svg11.dtd" [
	<!ENTITY ns_flows "http://ns.adobe.com/Flows/1.0/">
]>
<svg version="1.1"
	 xmlns="http://www.w3.org/2000/svg" xmlns:xlink="http://www.w3.org/1999/xlink" xmlns:a="http://ns.adobe.com/AdobeSVGViewerExtensions/3.0/"
	 x="0px" y="0px" width="180px" height="174px" viewBox="12.903 0 180 174" enable-background="new 12.903 0 180 174"
	 xml:space="preserve">
<defs>
</defs>
<path fill="#F5F5F5" d="M107.931,72.53c0-26.148-21.193-47.343-47.347-47.343c-26.148,0-47.347,21.195-47.347,47.343
	c0,26.151,21.198,47.349,47.347,47.349C86.737,119.879,107.931,98.681,107.931,72.53z"/>
<path fill="#F5F5F5" d="M128.503,0H83.911v20.447c3.135,1.407,6.149,3.064,8.958,4.999c4.558,3.137,8.596,6.969,12.06,11.273V19.136
	h23.574c25.113,0,41.513,17.257,41.513,40.826c0,23.58-16.399,40.482-41.513,40.482h-18.507
	c-4.396,7.697-10.519,14.235-17.868,19.134h36.375c37.581,0,63.554-26.128,63.554-59.951C192.057,25.793,166.084,0,128.503,0z"/>
<g>
	<defs>
		<path id="SVGID_1_" d="M107.766,72.738c0-26.149-21.194-47.345-47.347-47.345c-26.148,0-47.347,21.195-47.347,47.345
			c0,26.151,21.198,47.348,47.347,47.348C86.571,120.086,107.766,98.889,107.766,72.738z"/>
	</defs>
	<clipPath id="SVGID_2_">
		<use xlink:href="#SVGID_1_"  overflow="visible"/>
	</clipPath>
	<g clip-path="url(#SVGID_2_)">
		<g>
			<g>
				<polygon fill="#4085A6" points="77.085,27.937 74.051,27.937 73.416,30.97 76.45,30.97 				"/>
				<polygon fill="#4085A6" points="81.405,27.932 78.372,27.932 77.737,30.963 80.771,30.963 				"/>
				<polygon fill="#4085A6" points="85.781,27.932 82.747,27.932 82.112,30.963 85.146,30.963 				"/>
				<polygon fill="#4085A6" points="90.102,27.926 87.068,27.926 86.435,30.959 89.468,30.959 				"/>
				<polygon fill="#4085A6" points="94.423,27.988 91.389,27.988 90.755,31.024 93.787,31.024 				"/>
				<polygon fill="#4085A6" points="98.743,27.986 95.709,27.986 95.074,31.019 98.108,31.019 				"/>
				<polygon fill="#4085A6" points="103.119,27.986 100.085,27.986 99.45,31.019 102.484,31.019 				"/>
				<polygon fill="#4085A6" points="71.998,32.17 68.965,32.17 68.33,35.204 71.363,35.204 				"/>
				<polygon fill="#4085A6" points="76.27,32.131 73.236,32.131 72.604,35.164 75.637,35.164 				"/>
				<polygon fill="#4085A6" points="80.591,32.125 77.558,32.125 76.924,35.159 79.956,35.159 				"/>
				<polygon fill="#4085A6" points="84.966,32.125 81.933,32.125 81.299,35.159 84.332,35.159 				"/>
				<polygon fill="#4085A6" points="89.288,32.123 86.255,32.123 85.619,35.155 88.653,35.155 				"/>
				<polygon fill="#4085A6" points="93.607,32.183 90.573,32.183 89.94,35.217 92.974,35.217 				"/>
				<polygon fill="#4085A6" points="97.928,32.178 94.895,32.178 94.262,35.211 97.295,35.211 				"/>
				<polygon fill="#4085A6" points="71.141,36.302 68.107,36.302 67.473,39.336 70.508,39.336 				"/>
				<polygon fill="#4085A6" points="84.198,36.326 81.165,36.326 80.53,39.361 83.563,39.361 				"/>
				<polygon fill="#4085A6" points="82.802,44.491 79.769,44.491 79.134,47.524 82.167,47.524 				"/>
				<polygon fill="#4085A6" points="88.432,36.251 85.398,36.251 84.763,39.286 87.795,39.286 				"/>
				<polygon fill="#4085A6" points="87.746,40.4 84.713,40.4 84.078,43.435 87.111,43.435 				"/>
				<polygon fill="#4085A6" points="87.061,44.55 84.026,44.55 83.394,47.584 86.426,47.584 				"/>
				<polygon fill="#4085A6" points="92.008,40.501 88.975,40.501 88.341,43.538 91.374,43.538 				"/>
				<polygon fill="#4085A6" points="97.095,36.366 94.062,36.366 93.426,39.399 96.46,39.399 				"/>
				<polygon fill="#4085A6" points="102.399,32.182 99.367,32.182 98.732,35.217 101.765,35.217 				"/>
				<polygon fill="#4085A6" points="106.727,32.298 103.693,32.298 103.061,35.332 106.094,35.332 				"/>
				<polygon fill="#4085A6" points="96.301,40.541 93.267,40.541 92.634,43.573 95.666,43.573 				"/>
				<polygon fill="#4085A6" points="92.751,36.316 89.718,36.316 89.083,39.348 92.116,39.348 				"/>
				<polygon fill="#4085A6" points="101.447,36.311 98.414,36.311 97.78,39.344 100.813,39.344 				"/>
				<polygon fill="#4085A6" points="101.845,43.698 98.811,43.698 98.177,46.73 101.21,46.73 				"/>
				<polygon fill="#4085A6" points="74.599,40.456 71.565,40.456 70.932,43.489 73.966,43.489 				"/>
				<polygon fill="#4085A6" points="104.577,49.079 101.545,49.079 100.909,52.112 103.941,52.112 				"/>
			</g>
			<g>
				<g>
					<polygon fill="#4085A6" points="45.106,36.307 42.073,36.307 41.438,39.342 44.472,39.342 					"/>
					<polygon fill="#4085A6" points="37.59,52.903 34.557,52.903 33.922,55.938 36.955,55.938 					"/>
					<polygon fill="#4085A6" points="42.8,48.835 39.766,48.835 39.131,51.868 42.166,51.868 					"/>
					<polygon fill="#4085A6" points="41.993,53.073 38.962,53.073 38.327,56.107 41.36,56.107 					"/>
					<polygon fill="#4085A6" points="40.959,57.092 37.926,57.092 37.292,60.127 40.325,60.127 					"/>
					<polygon fill="#4085A6" points="40.164,61.228 37.131,61.228 36.496,64.263 39.529,64.263 					"/>
					<polygon fill="#4085A6" points="35.032,65.509 32,65.509 31.363,68.543 34.397,68.543 					"/>
					<polygon fill="#4085A6" points="44.726,82.055 41.692,82.055 41.058,85.087 44.091,85.087 					"/>
					<polygon fill="#4085A6" points="66.819,36.307 63.786,36.307 63.153,39.34 66.186,39.34 					"/>
					<polygon fill="#4085A6" points="48.667,40.446 45.635,40.446 45.001,43.48 48.034,43.48 					"/>
					<polygon fill="#4085A6" points="52.988,40.441 49.955,40.441 49.321,43.475 52.354,43.475 					"/>
					<polygon fill="#4085A6" points="57.309,40.505 54.274,40.505 53.642,43.538 56.676,43.538 					"/>
					<polygon fill="#4085A6" points="61.631,40.5 58.597,40.5 57.963,43.534 60.996,43.534 					"/>
					<polygon fill="#4085A6" points="66.006,40.5 62.973,40.5 62.339,43.534 65.372,43.534 					"/>
					<polygon fill="#4085A6" points="47.885,44.611 44.852,44.611 44.217,47.645 47.25,47.645 					"/>
					<polygon fill="#4085A6" points="47.129,48.814 44.096,48.814 43.462,51.847 46.496,51.847 					"/>
					<polygon fill="#4085A6" points="46.374,53.017 43.341,53.017 42.706,56.05 45.739,56.05 					"/>
					<polygon fill="#4085A6" points="52.282,44.491 49.251,44.491 48.615,47.524 51.648,47.524 					"/>
					<polygon fill="#4085A6" points="51.469,48.65 48.437,48.65 47.802,51.683 50.835,51.683 					"/>
					<polygon fill="#4085A6" points="59.238,52.793 56.205,52.793 55.57,55.826 58.604,55.826 					"/>
					<polygon fill="#4085A6" points="64.543,48.749 61.51,48.749 60.876,51.782 63.908,51.782 					"/>
					<polygon fill="#4085A6" points="63.434,52.896 60.4,52.896 59.766,55.93 62.799,55.93 					"/>
					<polygon fill="#4085A6" points="50.688,52.891 47.654,52.891 47.021,55.924 50.054,55.924 					"/>
					<polygon fill="#4085A6" points="67.74,52.959 64.707,52.959 64.073,55.992 67.106,55.992 					"/>
					<polygon fill="#4085A6" points="45.435,57.161 42.401,57.161 41.768,60.195 44.801,60.195 					"/>
					<polygon fill="#4085A6" points="44.573,61.233 41.539,61.233 40.906,64.267 43.939,64.267 					"/>
					<polygon fill="#4085A6" points="39.442,65.514 36.408,65.514 35.774,68.548 38.807,68.548 					"/>
					<polygon fill="#4085A6" points="49.755,57.103 46.722,57.103 46.087,60.135 49.12,60.135 					"/>
					<polygon fill="#4085A6" points="54.088,57.077 51.055,57.077 50.42,60.11 53.454,60.11 					"/>
					<polygon fill="#4085A6" points="71.993,53.011 68.96,53.011 68.325,56.046 71.358,56.046 					"/>
					<polygon fill="#4085A6" points="58.404,56.977 55.37,56.977 54.737,60.011 57.771,60.011 					"/>
					<polygon fill="#4085A6" points="48.914,61.162 45.881,61.162 45.246,64.193 48.28,64.193 					"/>
					<polygon fill="#4085A6" points="43.782,65.442 40.749,65.442 40.114,68.475 43.147,68.475 					"/>
					<polygon fill="#4085A6" points="48.079,65.48 45.048,65.48 44.412,68.514 47.446,68.514 					"/>
					<polygon fill="#4085A6" points="34.18,69.648 31.146,69.648 30.513,72.682 33.546,72.682 					"/>
					<polygon fill="#4085A6" points="38.563,69.655 35.528,69.655 34.895,72.689 37.928,72.689 					"/>
					<polygon fill="#4085A6" points="42.943,69.58 39.911,69.58 39.276,72.612 42.31,72.612 					"/>
					<polygon fill="#4085A6" points="47.204,69.582 44.171,69.582 43.536,72.615 46.569,72.615 					"/>
					<polygon fill="#4085A6" points="46.132,73.545 43.099,73.545 42.464,76.578 45.497,76.578 					"/>
					<polygon fill="#4085A6" points="51.835,79.646 48.803,79.646 48.169,82.68 51.201,82.68 					"/>
					<polygon fill="#4085A6" points="53.282,61.172 50.249,61.172 49.614,64.206 52.647,64.206 					"/>
					<polygon fill="#4085A6" points="62.64,57.076 59.606,57.076 58.973,60.109 62.006,60.109 					"/>
					<polygon fill="#4085A6" points="52.45,65.496 49.417,65.496 48.782,68.529 51.815,68.529 					"/>
					<polygon fill="#4085A6" points="57.677,61.071 54.644,61.071 54.009,64.105 57.042,64.105 					"/>
					<polygon fill="#4085A6" points="14.025,40.445 10.992,40.445 10.357,43.48 13.391,43.48 					"/>
					<polygon fill="#4085A6" points="18.345,40.44 15.313,40.44 14.678,43.474 17.711,43.474 					"/>
					<polygon fill="#4085A6" points="22.666,40.505 19.634,40.505 19,43.538 22.033,43.538 					"/>
					<polygon fill="#4085A6" points="8.803,44.573 5.768,44.573 5.135,47.606 8.169,47.606 					"/>
					<polygon fill="#4085A6" points="13.177,44.573 10.144,44.573 9.511,47.606 12.544,47.606 					"/>
					<polygon fill="#4085A6" points="17.498,44.567 14.465,44.567 13.831,47.601 16.864,47.601 					"/>
					<polygon fill="#4085A6" points="21.818,44.63 18.785,44.63 18.151,47.663 21.184,47.663 					"/>
					<polygon fill="#4085A6" points="26.986,40.5 23.954,40.5 23.32,43.533 26.354,43.533 					"/>
					<polygon fill="#4085A6" points="31.363,40.5 28.33,40.5 27.696,43.533 30.729,43.533 					"/>
					<polygon fill="#4085A6" points="35.684,40.495 32.65,40.495 32.016,43.528 35.05,43.528 					"/>
					<polygon fill="#4085A6" points="39.972,40.452 36.938,40.452 36.304,43.486 39.337,43.486 					"/>
					<polygon fill="#4085A6" points="30.514,44.625 27.48,44.625 26.847,47.658 29.88,47.658 					"/>
					<polygon fill="#4085A6" points="34.837,44.621 31.802,44.621 31.169,47.654 34.202,47.654 					"/>
					<polygon fill="#4085A6" points="39.205,44.578 36.172,44.578 35.538,47.61 38.571,47.61 					"/>
					<polygon fill="#4085A6" points="44.292,40.446 41.259,40.446 40.624,43.48 43.658,43.48 					"/>
					<polygon fill="#4085A6" points="43.58,44.6 40.548,44.6 39.913,47.634 42.947,47.634 					"/>
					<polygon fill="#4085A6" points="25.326,48.82 22.293,48.82 21.658,51.851 24.692,51.851 					"/>
					<polygon fill="#4085A6" points="29.701,48.82 26.668,48.82 26.033,51.851 29.066,51.851 					"/>
					<polygon fill="#4085A6" points="34.021,48.814 30.988,48.814 30.354,51.847 33.388,51.847 					"/>
					<polygon fill="#4085A6" points="38.392,48.771 35.358,48.771 34.724,51.806 37.757,51.806 					"/>
					<polygon fill="#4085A6" points="24.469,52.95 21.435,52.95 20.801,55.985 23.835,55.985 					"/>
					<polygon fill="#4085A6" points="28.844,52.95 25.812,52.95 25.177,55.985 28.21,55.985 					"/>
					<polygon fill="#4085A6" points="33.165,52.946 30.132,52.946 29.497,55.979 32.53,55.979 					"/>
					<polygon fill="#4085A6" points="19.333,57.149 16.3,57.149 15.666,60.183 18.699,60.183 					"/>
					<polygon fill="#4085A6" points="23.653,57.145 20.622,57.145 19.988,60.179 23.021,60.179 					"/>
					<polygon fill="#4085A6" points="28.029,57.145 24.997,57.145 24.363,60.179 27.396,60.179 					"/>
					<polygon fill="#4085A6" points="32.351,57.14 29.317,57.14 28.685,60.174 31.717,60.174 					"/>
					<polygon fill="#4085A6" points="36.638,57.099 33.604,57.099 32.971,60.13 36.004,60.13 					"/>
					<polygon fill="#4085A6" points="18.539,61.313 15.505,61.313 14.871,64.345 17.904,64.345 					"/>
					<polygon fill="#4085A6" points="22.858,61.309 19.825,61.309 19.191,64.342 22.224,64.342 					"/>
					<polygon fill="#4085A6" points="27.234,61.309 24.2,61.309 23.566,64.342 26.601,64.342 					"/>
					<polygon fill="#4085A6" points="31.555,61.303 28.521,61.303 27.889,64.336 30.922,64.336 					"/>
					<polygon fill="#4085A6" points="35.843,61.261 32.811,61.261 32.176,64.294 35.208,64.294 					"/>
					<polygon fill="#4085A6" points="17.724,65.506 14.689,65.506 14.057,68.539 17.09,68.539 					"/>
					<polygon fill="#4085A6" points="22.046,65.501 19.012,65.501 18.376,68.536 21.41,68.536 					"/>
					<polygon fill="#4085A6" points="26.421,65.501 23.386,65.501 22.753,68.536 25.785,68.536 					"/>
					<polygon fill="#4085A6" points="30.742,65.497 27.709,65.497 27.073,68.529 30.107,68.529 					"/>
					<polygon fill="#4085A6" points="21.188,69.633 18.156,69.633 17.521,72.667 20.554,72.667 					"/>
					<polygon fill="#4085A6" points="25.564,69.633 22.53,69.633 21.896,72.667 24.931,72.667 					"/>
					<polygon fill="#4085A6" points="29.885,69.63 26.852,69.63 26.217,72.663 29.25,72.663 					"/>
					<polygon fill="#4085A6" points="20.374,73.826 17.34,73.826 16.706,76.861 19.739,76.861 					"/>
					<polygon fill="#4085A6" points="24.749,73.826 21.716,73.826 21.081,76.861 24.115,76.861 					"/>
					<polygon fill="#4085A6" points="29.07,73.822 26.037,73.822 25.404,76.856 28.438,76.856 					"/>
					<polygon fill="#4085A6" points="28.234,77.913 25.201,77.913 24.567,80.946 27.601,80.946 					"/>
					<polygon fill="#4085A6" points="32.522,77.87 29.489,77.87 28.854,80.905 31.888,80.905 					"/>
					<polygon fill="#4085A6" points="40.403,82.06 37.37,82.06 36.737,85.092 39.771,85.092 					"/>
					<polygon fill="#4085A6" points="50.339,32.123 47.306,32.123 46.67,35.155 49.704,35.155 					"/>
					<polygon fill="#4085A6" points="58.981,32.18 55.947,32.18 55.312,35.213 58.346,35.213 					"/>
					<polygon fill="#4085A6" points="57.101,27.431 54.066,27.431 53.434,30.461 56.466,30.461 					"/>
					<polygon fill="#4085A6" points="49.481,36.254 46.448,36.254 45.814,39.287 48.849,39.287 					"/>
					<polygon fill="#4085A6" points="53.803,36.248 50.769,36.248 50.135,39.282 53.169,39.282 					"/>
					<polygon fill="#4085A6" points="62.443,36.307 59.41,36.307 58.777,39.34 61.811,39.34 					"/>
					<polygon fill="#4085A6" points="3.667,48.77 0.633,48.77 0,51.803 3.033,51.803 					"/>
					<polygon fill="#4085A6" points="26.141,44.625 23.107,44.625 22.473,47.658 25.506,47.658 					"/>
					<polygon fill="#4085A6" points="7.988,48.764 4.955,48.764 4.32,51.8 7.354,51.8 					"/>
				</g>
				<g>
					<polygon fill="#4085A6" points="52.511,86.244 49.478,86.244 48.843,89.278 51.876,89.278 					"/>
					<polygon fill="#4085A6" points="56.884,86.244 53.853,86.244 53.218,89.278 56.251,89.278 					"/>
					<polygon fill="#4085A6" points="61.205,86.24 58.174,86.24 57.539,89.273 60.572,89.273 					"/>
					<polygon fill="#4085A6" points="43.055,90.379 40.021,90.379 39.388,93.415 42.42,93.415 					"/>
					<polygon fill="#4085A6" points="51.696,90.438 48.663,90.438 48.028,93.471 51.062,93.471 					"/>
					<polygon fill="#4085A6" points="56.071,90.438 53.038,90.438 52.403,93.471 55.437,93.471 					"/>
					<polygon fill="#4085A6" points="60.394,90.434 57.359,90.434 56.725,93.465 59.758,93.465 					"/>
					<polygon fill="#4085A6" points="64.665,90.393 61.632,90.393 60.997,93.426 64.031,93.426 					"/>
					<polygon fill="#4085A6" points="68.985,90.389 65.953,90.389 65.317,93.422 68.351,93.422 					"/>
					<polygon fill="#4085A6" points="42.235,94.498 39.201,94.498 38.566,97.531 41.6,97.531 					"/>
					<polygon fill="#4085A6" points="46.554,94.563 43.523,94.563 42.89,97.594 45.921,97.594 					"/>
					<polygon fill="#4085A6" points="50.877,94.557 47.844,94.557 47.21,97.589 50.242,97.589 					"/>
					<polygon fill="#4085A6" points="55.252,94.557 52.219,94.557 51.584,97.589 54.619,97.589 					"/>
					<polygon fill="#4085A6" points="59.573,94.553 56.538,94.553 55.905,97.584 58.938,97.584 					"/>
					<polygon fill="#4085A6" points="63.845,94.511 60.812,94.511 60.177,97.544 63.211,97.544 					"/>
					<polygon fill="#4085A6" points="68.168,94.507 65.135,94.507 64.498,97.54 67.531,97.54 					"/>
					<polygon fill="#4085A6" points="72.543,94.507 69.508,94.507 68.874,97.54 71.907,97.54 					"/>
					<polygon fill="#4085A6" points="76.862,94.502 73.829,94.502 73.195,97.536 76.229,97.536 					"/>
					<polygon fill="#4085A6" points="45.742,98.755 42.708,98.755 42.075,101.789 45.107,101.789 					"/>
					<polygon fill="#4085A6" points="50.063,98.75 47.029,98.75 46.395,101.784 49.428,101.784 					"/>
					<polygon fill="#4085A6" points="54.438,98.75 51.404,98.75 50.771,101.784 53.804,101.784 					"/>
					<polygon fill="#4085A6" points="58.759,98.746 55.726,98.746 55.091,101.78 58.124,101.78 					"/>
					<polygon fill="#4085A6" points="63.032,98.706 59.999,98.706 59.364,101.739 62.396,101.739 					"/>
					<polygon fill="#4085A6" points="67.354,98.7 64.319,98.7 63.686,101.735 66.717,101.735 					"/>
					<polygon fill="#4085A6" points="71.729,98.7 68.695,98.7 68.06,101.735 71.094,101.735 					"/>
					<polygon fill="#4085A6" points="76.049,98.696 73.015,98.696 72.381,101.729 75.414,101.729 					"/>
					<polygon fill="#4085A6" points="80.369,98.757 77.336,98.757 76.701,101.793 79.734,101.793 					"/>
					<polygon fill="#4085A6" points="49.206,102.881 46.173,102.881 45.538,105.917 48.571,105.917 					"/>
					<polygon fill="#4085A6" points="53.581,102.881 50.548,102.881 49.914,105.917 52.946,105.917 					"/>
					<polygon fill="#4085A6" points="57.902,102.877 54.869,102.877 54.235,105.911 57.268,105.911 					"/>
					<polygon fill="#4085A6" points="62.175,102.836 59.142,102.836 58.507,105.871 61.541,105.871 					"/>
					<polygon fill="#4085A6" points="66.495,102.833 63.462,102.833 62.826,105.867 65.862,105.867 					"/>
					<polygon fill="#4085A6" points="70.871,102.833 67.837,102.833 67.204,105.867 70.236,105.867 					"/>
					<polygon fill="#4085A6" points="75.192,102.828 72.159,102.828 71.524,105.862 74.558,105.862 					"/>
					<polygon fill="#4085A6" points="79.514,102.889 76.479,102.889 75.845,105.922 78.879,105.922 					"/>
					<polygon fill="#4085A6" points="52.767,107.076 49.733,107.076 49.1,110.11 52.132,110.11 					"/>
					<polygon fill="#4085A6" points="57.088,107.073 54.054,107.073 53.421,110.103 56.454,110.103 					"/>
					<polygon fill="#4085A6" points="61.36,107.03 58.327,107.03 57.692,110.064 60.726,110.064 					"/>
					<polygon fill="#4085A6" points="65.681,107.027 62.647,107.027 62.015,110.057 65.048,110.057 					"/>
					<polygon fill="#4085A6" points="70.057,107.027 67.023,107.027 66.389,110.057 69.422,110.057 					"/>
					<polygon fill="#4085A6" points="74.378,107.02 71.345,107.02 70.711,110.055 73.743,110.055 					"/>
					<polygon fill="#4085A6" points="56.206,111.125 53.174,111.125 52.539,114.159 55.572,114.159 					"/>
					<polygon fill="#4085A6" points="60.583,111.125 57.548,111.125 56.914,114.159 59.948,114.159 					"/>
					<polygon fill="#4085A6" points="64.904,111.12 61.87,111.12 61.235,114.153 64.269,114.153 					"/>
					<polygon fill="#4085A6" points="69.225,111.182 66.191,111.182 65.555,114.215 68.589,114.215 					"/>
					<polygon fill="#4085A6" points="73.545,111.177 70.513,111.177 69.877,114.211 72.91,114.211 					"/>
					<polygon fill="#4085A6" points="55.393,115.318 52.359,115.318 51.725,118.351 54.758,118.351 					"/>
					<polygon fill="#4085A6" points="59.768,115.318 56.734,115.318 56.1,118.351 59.134,118.351 					"/>
					<polygon fill="#4085A6" points="64.089,115.313 61.056,115.313 60.421,118.346 63.454,118.346 					"/>
					<polygon fill="#4085A6" points="68.41,115.376 65.375,115.376 64.742,118.411 67.775,118.411 					"/>
					<polygon fill="#4085A6" points="72.73,115.373 69.696,115.373 69.063,118.406 72.096,118.406 					"/>
					<polygon fill="#4085A6" points="54.536,119.448 51.503,119.448 50.868,122.485 53.902,122.485 					"/>
					<polygon fill="#4085A6" points="58.911,119.448 55.878,119.448 55.244,122.485 58.277,122.485 					"/>
					<polygon fill="#4085A6" points="63.232,119.446 60.198,119.446 59.564,122.477 62.599,122.477 					"/>
					<polygon fill="#4085A6" points="67.553,119.508 64.52,119.508 63.886,122.542 66.918,122.542 					"/>
					<polygon fill="#4085A6" points="58.097,123.643 55.063,123.643 54.429,126.676 57.463,126.676 					"/>
					<polygon fill="#4085A6" points="62.418,123.639 59.385,123.639 58.751,126.672 61.784,126.672 					"/>
					<polygon fill="#4085A6" points="61.596,127.688 58.563,127.688 57.928,130.721 60.962,130.721 					"/>
					<polygon fill="#4085A6" points="47.375,90.444 44.342,90.444 43.707,93.475 46.74,93.475 					"/>
					<polygon fill="#4085A6" points="48.189,86.249 45.155,86.249 44.522,89.282 47.555,89.282 					"/>
					<polygon fill="#4085A6" points="65.156,131.928 62.123,131.928 61.489,134.961 64.523,134.961 					"/>
					<polygon fill="#4085A6" points="65.971,127.688 62.938,127.688 62.304,130.721 65.337,130.721 					"/>
				</g>
			</g>
		</g>
		<g>
			<polygon fill="#4085A6" points="93.879,73.622 90.846,73.622 90.213,76.656 93.245,76.656 			"/>
			<polygon fill="#4085A6" points="92.916,77.747 89.884,77.747 89.248,80.783 92.282,80.783 			"/>
			<polygon fill="#4085A6" points="92.128,82.218 89.095,82.218 88.46,85.251 91.494,85.251 			"/>
			<g>
				<polygon fill="#4085A6" points="101.832,61.123 98.799,61.123 98.165,64.157 101.199,64.157 				"/>
				<polygon fill="#4085A6" points="117.938,40.452 114.905,40.452 114.27,43.486 117.304,43.486 				"/>
				<polygon fill="#4085A6" points="122.26,40.449 119.227,40.449 118.592,43.48 121.625,43.48 				"/>
				<polygon fill="#4085A6" points="126.579,40.51 123.547,40.51 122.912,43.543 125.945,43.543 				"/>
				<polygon fill="#4085A6" points="99.718,53.047 96.685,53.047 96.05,56.081 99.084,56.081 				"/>
				<polygon fill="#4085A6" points="130.9,40.505 127.867,40.505 127.233,43.539 130.266,43.539 				"/>
				<polygon fill="#4085A6" points="135.386,40.588 132.353,40.588 131.718,43.623 134.751,43.623 				"/>
				<polygon fill="#4085A6" points="107.561,53.143 104.526,53.143 103.893,56.176 106.926,56.176 				"/>
				<polygon fill="#4085A6" points="139.642,40.566 136.608,40.566 135.974,43.6 139.008,43.6 				"/>
				<polygon fill="#4085A6" points="111.768,53.063 108.733,53.063 108.101,56.096 111.134,56.096 				"/>
				<polygon fill="#4085A6" points="113.901,45.03 110.869,45.03 110.234,48.064 113.268,48.064 				"/>
				<polygon fill="#4085A6" points="118.015,45.215 114.981,45.215 114.347,48.248 117.382,48.248 				"/>
				<polygon fill="#4085A6" points="122.063,45.084 119.03,45.084 118.396,48.117 121.429,48.117 				"/>
				<polygon fill="#4085A6" points="106.82,57.217 103.786,57.217 103.153,60.25 106.187,60.25 				"/>
				<polygon fill="#4085A6" points="115.944,53.107 112.91,53.107 112.276,56.139 115.31,56.139 				"/>
				<polygon fill="#4085A6" points="120.163,53.187 117.129,53.187 116.495,56.221 119.529,56.221 				"/>
				<polygon fill="#4085A6" points="126.255,45.002 123.223,45.002 122.589,48.037 125.622,48.037 				"/>
				<polygon fill="#4085A6" points="130.443,45.039 127.409,45.039 126.774,48.074 129.809,48.074 				"/>
				<polygon fill="#4085A6" points="134.646,44.998 131.611,44.998 130.977,48.031 134.01,48.031 				"/>
				<polygon fill="#4085A6" points="125.387,49.051 122.354,49.051 121.719,52.083 124.752,52.083 				"/>
				<polygon fill="#4085A6" points="138.866,44.825 135.833,44.825 135.199,47.857 138.231,47.857 				"/>
				<polygon fill="#4085A6" points="111.023,57.244 107.99,57.244 107.356,60.278 110.39,60.278 				"/>
				<polygon fill="#4085A6" points="129.645,49.02 126.611,49.02 125.977,52.052 129.012,52.052 				"/>
				<polygon fill="#4085A6" points="133.86,49.051 130.827,49.051 130.193,52.083 133.227,52.083 				"/>
				<polygon fill="#4085A6" points="124.405,53.145 121.371,53.145 120.737,56.176 123.771,56.176 				"/>
				<polygon fill="#4085A6" points="128.702,53.066 125.667,53.066 125.034,56.101 128.067,56.101 				"/>
				<polygon fill="#4085A6" points="115.17,57.292 112.135,57.292 111.502,60.327 114.535,60.327 				"/>
				<polygon fill="#4085A6" points="119.411,57.27 116.378,57.27 115.745,60.304 118.777,60.304 				"/>
				<polygon fill="#4085A6" points="132.943,53.163 129.91,53.163 129.275,56.195 132.31,56.195 				"/>
				<polygon fill="#4085A6" points="137.239,53.085 134.207,53.085 133.573,56.118 136.606,56.118 				"/>
				<polygon fill="#4085A6" points="138.025,48.886 134.991,48.886 134.355,51.92 137.391,51.92 				"/>
				<polygon fill="#4085A6" points="167.052,32.336 164.018,32.336 163.385,35.369 166.418,35.369 				"/>
				<polygon fill="#4085A6" points="148.857,36.414 145.824,36.414 145.188,39.448 148.222,39.448 				"/>
				<polygon fill="#4085A6" points="123.356,34.927 120.322,34.927 119.688,37.96 122.724,37.96 				"/>
				<polygon fill="#4085A6" points="157.553,36.409 154.519,36.409 153.885,39.443 156.918,39.443 				"/>
				<polygon fill="#4085A6" points="161.873,36.472 158.84,36.472 158.206,39.505 161.24,39.505 				"/>
				<polygon fill="#4085A6" points="143.925,40.565 140.891,40.565 140.257,43.598 143.291,43.598 				"/>
				<polygon fill="#4085A6" points="148.17,40.497 145.135,40.497 144.503,43.532 147.536,43.532 				"/>
				<polygon fill="#4085A6" points="152.418,40.607 149.384,40.607 148.751,43.642 151.784,43.642 				"/>
				<polygon fill="#4085A6" points="156.739,40.602 153.705,40.602 153.071,43.635 156.104,43.635 				"/>
				<polygon fill="#4085A6" points="161.06,40.667 158.025,40.667 157.392,43.698 160.426,43.698 				"/>
				<polygon fill="#4085A6" points="143.182,44.792 140.148,44.792 139.515,47.826 142.548,47.826 				"/>
				<polygon fill="#4085A6" points="147.419,44.722 144.386,44.722 143.752,47.756 146.784,47.756 				"/>
				<polygon fill="#4085A6" points="151.621,44.7 148.589,44.7 147.954,47.732 150.987,47.732 				"/>
				<polygon fill="#4085A6" points="155.942,44.694 152.909,44.694 152.276,47.728 155.31,47.728 				"/>
				<polygon fill="#4085A6" points="160.264,44.757 157.23,44.757 156.596,47.792 159.629,47.792 				"/>
				<polygon fill="#4085A6" points="142.248,48.931 139.216,48.931 138.58,51.965 141.613,51.965 				"/>
				<polygon fill="#4085A6" points="146.546,48.844 143.513,48.844 142.879,51.877 145.912,51.877 				"/>
				<polygon fill="#4085A6" points="150.809,48.805 147.775,48.805 147.139,51.839 150.174,51.839 				"/>
				<polygon fill="#4085A6" points="155.13,48.89 152.097,48.89 151.461,51.923 154.495,51.923 				"/>
				<polygon fill="#4085A6" points="159.45,48.951 156.417,48.951 155.782,51.987 158.814,51.987 				"/>
				<polygon fill="#4085A6" points="141.429,53.081 138.396,53.081 137.762,56.114 140.795,56.114 				"/>
				<polygon fill="#4085A6" points="145.728,53.004 142.692,53.004 142.06,56.036 145.093,56.036 				"/>
				<polygon fill="#4085A6" points="123.681,57.273 120.647,57.273 120.013,60.306 123.047,60.306 				"/>
				<polygon fill="#4085A6" points="127.979,57.196 124.945,57.196 124.31,60.23 127.343,60.23 				"/>
				<polygon fill="#4085A6" points="150.11,52.965 147.077,52.965 146.442,55.999 149.476,55.999 				"/>
				<polygon fill="#4085A6" points="154.385,52.984 151.352,52.984 150.718,56.018 153.751,56.018 				"/>
				<polygon fill="#4085A6" points="158.593,53.085 155.56,53.085 154.924,56.118 157.958,56.118 				"/>
				<polygon fill="#4085A6" points="132.201,57.1 129.167,57.1 128.533,60.134 131.566,60.134 				"/>
				<polygon fill="#4085A6" points="136.434,57.129 133.399,57.129 132.765,60.162 135.798,60.162 				"/>
				<polygon fill="#4085A6" points="140.774,57.073 137.741,57.073 137.106,60.108 140.14,60.108 				"/>
				<polygon fill="#4085A6" points="145.007,57.129 141.975,57.129 141.339,60.162 144.373,60.162 				"/>
				<polygon fill="#4085A6" points="144.236,61.127 141.203,61.127 140.567,64.163 143.603,64.163 				"/>
				<polygon fill="#4085A6" points="149.291,57.157 146.258,57.157 145.623,60.19 148.656,60.19 				"/>
				<polygon fill="#4085A6" points="157.778,57.278 154.745,57.278 154.111,60.311 157.146,60.311 				"/>
				<polygon fill="#4085A6" points="152.718,61.34 149.687,61.34 149.052,64.375 152.085,64.375 				"/>
				<polygon fill="#4085A6" points="162.1,57.273 159.065,57.273 158.432,60.306 161.466,60.306 				"/>
				<polygon fill="#4085A6" points="156.943,61.368 153.911,61.368 153.274,64.401 156.309,64.401 				"/>
				<polygon fill="#4085A6" points="161.265,61.363 158.231,61.363 157.597,64.396 160.63,64.396 				"/>
				<polygon fill="#4085A6" points="118.597,61.352 115.563,61.352 114.929,64.385 117.961,64.385 				"/>
				<polygon fill="#4085A6" points="104.387,65.437 101.353,65.437 100.718,68.469 103.752,68.469 				"/>
				<polygon fill="#4085A6" points="134.781,65.5 131.748,65.5 131.113,68.533 134.146,68.533 				"/>
				<polygon fill="#4085A6" points="139.026,65.561 135.994,65.561 135.36,68.594 138.394,68.594 				"/>
				<polygon fill="#4085A6" points="143.29,65.578 140.255,65.578 139.621,68.609 142.655,68.609 				"/>
				<polygon fill="#4085A6" points="108.699,65.52 105.665,65.52 105.031,68.552 108.064,68.552 				"/>
				<polygon fill="#4085A6" points="113.02,65.514 109.986,65.514 109.352,68.548 112.385,68.548 				"/>
				<polygon fill="#4085A6" points="99.067,69.514 96.034,69.514 95.4,72.546 98.434,72.546 				"/>
				<polygon fill="#4085A6" points="103.421,69.577 100.388,69.577 99.753,72.61 102.786,72.61 				"/>
				<polygon fill="#4085A6" points="107.742,69.572 104.709,69.572 104.076,72.605 107.107,72.605 				"/>
				<polygon fill="#4085A6" points="112.117,69.572 109.084,69.572 108.449,72.605 111.482,72.605 				"/>
				<polygon fill="#4085A6" points="116.439,69.566 113.406,69.566 112.771,72.6 115.804,72.6 				"/>
				<polygon fill="#4085A6" points="120.759,69.63 117.726,69.63 117.093,72.663 120.125,72.663 				"/>
				<polygon fill="#4085A6" points="98.2,73.618 95.167,73.618 94.534,76.65 97.567,76.65 				"/>
				<polygon fill="#4085A6" points="102.547,73.689 99.514,73.689 98.878,76.723 101.911,76.723 				"/>
				<polygon fill="#4085A6" points="106.867,73.685 103.833,73.685 103.2,76.718 106.232,76.718 				"/>
				<polygon fill="#4085A6" points="111.242,73.685 108.209,73.685 107.575,76.718 110.609,76.718 				"/>
				<polygon fill="#4085A6" points="115.564,73.68 112.53,73.68 111.896,76.714 114.929,76.714 				"/>
				<polygon fill="#4085A6" points="119.885,73.743 116.85,73.743 116.215,76.776 119.249,76.776 				"/>
				<polygon fill="#4085A6" points="125.076,69.66 122.041,69.66 121.408,72.693 124.441,72.693 				"/>
				<polygon fill="#4085A6" points="129.397,69.655 126.363,69.655 125.729,72.689 128.763,72.689 				"/>
				<polygon fill="#4085A6" points="133.772,69.655 130.737,69.655 130.104,72.689 133.138,72.689 				"/>
				<polygon fill="#4085A6" points="138.094,69.651 135.061,69.651 134.425,72.683 137.46,72.683 				"/>
				<polygon fill="#4085A6" points="142.414,69.714 139.382,69.714 138.745,72.747 141.778,72.747 				"/>
				<polygon fill="#4085A6" points="124.209,73.776 121.174,73.776 120.541,76.809 123.573,76.809 				"/>
				<polygon fill="#4085A6" points="128.53,73.772 125.497,73.772 124.862,76.804 127.896,76.804 				"/>
				<polygon fill="#4085A6" points="132.905,73.772 129.872,73.772 129.237,76.804 132.271,76.804 				"/>
				<polygon fill="#4085A6" points="137.226,73.766 134.192,73.766 133.558,76.8 136.592,76.8 				"/>
				<polygon fill="#4085A6" points="141.546,73.83 138.513,73.83 137.878,76.863 140.911,76.863 				"/>
				<polygon fill="#4085A6" points="97.288,77.857 94.255,77.857 93.619,80.89 96.652,80.89 				"/>
				<polygon fill="#4085A6" points="101.608,77.852 98.575,77.852 97.941,80.886 100.974,80.886 				"/>
				<polygon fill="#4085A6" points="105.983,77.852 102.95,77.852 102.316,80.886 105.351,80.886 				"/>
				<polygon fill="#4085A6" points="110.305,77.848 107.271,77.848 106.638,80.881 109.671,80.881 				"/>
				<polygon fill="#4085A6" points="114.624,77.911 111.593,77.911 110.957,80.944 113.99,80.944 				"/>
				<polygon fill="#4085A6" points="96.586,82.076 93.552,82.076 92.918,85.108 95.952,85.108 				"/>
				<polygon fill="#4085A6" points="100.996,82.02 97.963,82.02 97.329,85.054 100.362,85.054 				"/>
				<polygon fill="#4085A6" points="105.317,82.016 102.284,82.016 101.649,85.048 104.683,85.048 				"/>
				<polygon fill="#4085A6" points="118.949,77.896 115.915,77.896 115.281,80.93 118.314,80.93 				"/>
				<polygon fill="#4085A6" points="123.27,77.891 120.236,77.891 119.603,80.925 122.636,80.925 				"/>
				<polygon fill="#4085A6" points="127.646,77.891 124.61,77.891 123.979,80.925 127.011,80.925 				"/>
				<polygon fill="#4085A6" points="131.967,77.887 128.932,77.887 128.299,80.92 131.331,80.92 				"/>
				<polygon fill="#4085A6" points="136.287,77.95 133.253,77.95 132.618,80.984 135.651,80.984 				"/>
				<polygon fill="#4085A6" points="95.666,86.228 92.634,86.228 92,89.26 95.033,89.26 				"/>
				<polygon fill="#4085A6" points="109.64,82.047 106.606,82.047 105.973,85.081 109.005,85.081 				"/>
				<polygon fill="#4085A6" points="113.96,82.043 110.927,82.043 110.292,85.076 113.325,85.076 				"/>
				<polygon fill="#4085A6" points="118.335,82.043 115.302,82.043 114.667,85.076 117.701,85.076 				"/>
				<polygon fill="#4085A6" points="122.656,82.039 119.623,82.039 118.988,85.071 122.021,85.071 				"/>
				<polygon fill="#4085A6" points="126.978,82.101 123.944,82.101 123.31,85.134 126.343,85.134 				"/>
				<polygon fill="#4085A6" points="131.334,82.112 128.299,82.112 127.666,85.146 130.699,85.146 				"/>
				<polygon fill="#4085A6" points="100.123,86.201 97.09,86.201 96.455,89.235 99.487,89.235 				"/>
				<polygon fill="#4085A6" points="104.442,86.196 101.409,86.196 100.775,89.231 103.808,89.231 				"/>
				<polygon fill="#4085A6" points="108.817,86.196 105.784,86.196 105.15,89.231 108.185,89.231 				"/>
				<polygon fill="#4085A6" points="113.139,86.192 110.104,86.192 109.472,89.225 112.505,89.225 				"/>
				<polygon fill="#4085A6" points="117.459,86.254 114.427,86.254 113.792,89.288 116.825,89.288 				"/>
				<polygon fill="#4085A6" points="121.779,86.249 118.747,86.249 118.112,89.282 121.146,89.282 				"/>
				<polygon fill="#4085A6" points="126.156,86.249 123.122,86.249 122.489,89.282 125.521,89.282 				"/>
				<polygon fill="#4085A6" points="130.478,86.244 127.442,86.244 126.809,89.28 129.842,89.28 				"/>
				<polygon fill="#4085A6" points="116.646,90.45 113.612,90.45 112.978,93.483 116.011,93.483 				"/>
				<polygon fill="#4085A6" points="120.966,90.444 117.933,90.444 117.299,93.476 120.332,93.476 				"/>
				<polygon fill="#4085A6" points="125.342,90.444 122.309,90.444 121.675,93.476 124.708,93.476 				"/>
				<polygon fill="#4085A6" points="129.661,90.438 126.63,90.438 125.995,93.471 129.028,93.471 				"/>
				<polygon fill="#4085A6" points="115.826,94.568 112.793,94.568 112.158,97.6 115.192,97.6 				"/>
				<polygon fill="#4085A6" points="120.146,94.563 117.114,94.563 116.479,97.596 119.514,97.596 				"/>
				<polygon fill="#4085A6" points="124.522,94.563 121.49,94.563 120.854,97.596 123.887,97.596 				"/>
				<polygon fill="#4085A6" points="128.844,94.557 125.81,94.557 125.177,97.59 128.21,97.59 				"/>
				<polygon fill="#4085A6" points="119.333,98.755 116.3,98.755 115.665,101.79 118.698,101.79 				"/>
				<polygon fill="#4085A6" points="123.708,98.755 120.675,98.755 120.041,101.79 123.074,101.79 				"/>
				<polygon fill="#4085A6" points="128.028,98.75 124.996,98.75 124.361,101.784 127.396,101.784 				"/>
				<polygon fill="#4085A6" points="118.477,102.887 115.443,102.887 114.809,105.92 117.842,105.92 				"/>
				<polygon fill="#4085A6" points="122.852,102.887 119.817,102.887 119.183,105.92 122.217,105.92 				"/>
				<polygon fill="#4085A6" points="127.173,102.881 124.139,102.881 123.504,105.917 126.538,105.917 				"/>
				<polygon fill="#4085A6" points="117.662,107.081 114.628,107.081 113.995,110.114 117.026,110.114 				"/>
				<polygon fill="#4085A6" points="122.037,107.081 119.003,107.081 118.368,110.114 121.403,110.114 				"/>
				<polygon fill="#4085A6" points="126.359,107.077 123.325,107.077 122.689,110.11 125.725,110.11 				"/>
				<polygon fill="#4085A6" points="151.808,65.498 148.776,65.498 148.141,68.531 151.173,68.531 				"/>
				<polygon fill="#4085A6" points="156.129,65.563 153.096,65.563 152.461,68.594 155.494,68.594 				"/>
				<polygon fill="#4085A6" points="160.45,65.558 157.417,65.558 156.782,68.59 159.815,68.59 				"/>
				<polygon fill="#4085A6" points="146.631,69.635 143.597,69.635 142.963,72.667 145.996,72.667 				"/>
				<polygon fill="#4085A6" points="150.952,69.63 147.917,69.63 147.284,72.663 150.317,72.663 				"/>
				<polygon fill="#4085A6" points="155.272,69.694 152.238,69.694 151.604,72.726 154.638,72.726 				"/>
				<polygon fill="#4085A6" points="159.594,69.688 156.56,69.688 155.925,72.723 158.959,72.723 				"/>
				<polygon fill="#4085A6" points="145.796,73.813 142.764,73.813 142.129,76.847 145.163,76.847 				"/>
				<polygon fill="#4085A6" points="150.138,73.824 147.104,73.824 146.47,76.858 149.502,76.858 				"/>
				<polygon fill="#4085A6" points="154.458,73.887 151.425,73.887 150.789,76.921 153.824,76.921 				"/>
				<polygon fill="#4085A6" points="140.651,78.001 137.618,78.001 136.984,81.037 140.018,81.037 				"/>
				<polygon fill="#4085A6" points="144.938,77.947 141.906,77.947 141.271,80.981 144.304,80.981 				"/>
				<polygon fill="#4085A6" points="149.289,78.012 146.255,78.012 145.62,81.043 148.653,81.043 				"/>
				<polygon fill="#4085A6" points="153.639,78.006 150.604,78.006 149.97,81.04 153.003,81.04 				"/>
				<polygon fill="#4085A6" points="135.486,82.145 132.454,82.145 131.819,85.178 134.853,85.178 				"/>
				<polygon fill="#4085A6" points="139.807,82.141 136.773,82.141 136.14,85.174 139.174,85.174 				"/>
				<polygon fill="#4085A6" points="144.2,82.071 141.166,82.071 140.531,85.104 143.565,85.104 				"/>
				<polygon fill="#4085A6" points="134.63,86.277 131.597,86.277 130.962,89.31 133.995,89.31 				"/>
				<polygon fill="#4085A6" points="138.951,86.273 135.918,86.273 135.283,89.306 138.316,89.306 				"/>
				<polygon fill="#4085A6" points="143.326,86.273 140.293,86.273 139.659,89.306 142.692,89.306 				"/>
				<polygon fill="#4085A6" points="147.647,86.268 144.613,86.268 143.979,89.301 147.013,89.301 				"/>
				<polygon fill="#4085A6" points="151.967,86.331 148.934,86.331 148.3,89.364 151.334,89.364 				"/>
				<polygon fill="#4085A6" points="133.816,90.471 130.782,90.471 130.149,93.505 133.183,93.505 				"/>
				<polygon fill="#4085A6" points="138.137,90.468 135.103,90.468 134.469,93.5 137.502,93.5 				"/>
				<polygon fill="#4085A6" points="142.511,90.468 139.479,90.468 138.845,93.5 141.878,93.5 				"/>
				<polygon fill="#4085A6" points="146.832,90.46 143.799,90.46 143.165,93.495 146.198,93.495 				"/>
				<polygon fill="#4085A6" points="133.071,94.653 130.038,94.653 129.403,97.686 132.438,97.686 				"/>
				<polygon fill="#4085A6" points="137.393,94.649 134.358,94.649 133.727,97.682 136.758,97.682 				"/>
				<polygon fill="#4085A6" points="141.768,94.649 138.734,94.649 138.1,97.682 141.133,97.682 				"/>
				<polygon fill="#4085A6" points="132.257,98.846 129.224,98.846 128.591,101.879 131.624,101.879 				"/>
				<polygon fill="#4085A6" points="136.578,98.841 133.545,98.841 132.911,101.875 135.945,101.875 				"/>
				<polygon fill="#4085A6" points="140.955,98.841 137.921,98.841 137.287,101.875 140.318,101.875 				"/>
				<polygon fill="#4085A6" points="131.4,102.977 128.367,102.977 127.733,106.012 130.767,106.012 				"/>
				<polygon fill="#4085A6" points="135.722,102.973 132.688,102.973 132.054,106.006 135.087,106.006 				"/>
				<polygon fill="#4085A6" points="140.097,102.973 137.063,102.973 136.429,106.006 139.463,106.006 				"/>
				<polygon fill="#4085A6" points="148.737,103.032 145.704,103.032 145.071,106.065 148.105,106.065 				"/>
				<polygon fill="#4085A6" points="130.586,107.172 127.553,107.172 126.918,110.206 129.952,110.206 				"/>
				<polygon fill="#4085A6" points="134.905,107.167 131.874,107.167 131.239,110.202 134.272,110.202 				"/>
				<polygon fill="#4085A6" points="143.604,107.163 140.57,107.163 139.937,110.196 142.97,110.196 				"/>
				<polygon fill="#4085A6" points="147.924,107.227 144.89,107.227 144.256,110.259 147.29,110.259 				"/>
				<polygon fill="#4085A6" points="121.155,111.135 118.123,111.135 117.488,114.167 120.522,114.167 				"/>
				<polygon fill="#4085A6" points="125.478,111.129 122.444,111.129 121.81,114.163 124.843,114.163 				"/>
				<polygon fill="#4085A6" points="129.853,111.129 126.819,111.129 126.186,114.163 129.219,114.163 				"/>
				<polygon fill="#4085A6" points="134.174,111.125 131.14,111.125 130.507,114.159 133.54,114.159 				"/>
				<polygon fill="#4085A6" points="142.815,111.184 139.782,111.184 139.147,114.215 142.181,114.215 				"/>
				<polygon fill="#4085A6" points="120.342,115.329 117.309,115.329 116.674,118.362 119.707,118.362 				"/>
				<polygon fill="#4085A6" points="124.663,115.325 121.63,115.325 120.995,118.356 124.028,118.356 				"/>
				<polygon fill="#4085A6" points="129.038,115.325 126.005,115.325 125.371,118.356 128.404,118.356 				"/>
				<polygon fill="#4085A6" points="133.359,115.318 130.326,115.318 129.691,118.352 132.725,118.352 				"/>
				<polygon fill="#4085A6" points="123.807,119.455 120.772,119.455 120.138,122.489 123.172,122.489 				"/>
				<polygon fill="#4085A6" points="166.193,36.468 163.161,36.468 162.527,39.5 165.561,39.5 				"/>
				<polygon fill="#4085A6" points="165.38,40.661 162.347,40.661 161.712,43.693 164.746,43.693 				"/>
				<polygon fill="#4085A6" points="164.585,44.754 161.552,44.754 160.917,47.787 163.951,47.787 				"/>
				<polygon fill="#4085A6" points="168.959,44.754 165.927,44.754 165.293,47.787 168.325,47.787 				"/>
				<polygon fill="#4085A6" points="163.771,48.948 160.737,48.948 160.103,51.981 163.137,51.981 				"/>
				<polygon fill="#4085A6" points="168.146,48.948 165.11,48.948 164.478,51.981 167.512,51.981 				"/>
				<polygon fill="#4085A6" points="162.914,53.078 159.881,53.078 159.247,56.114 162.28,56.114 				"/>
				<polygon fill="#4085A6" points="167.29,53.078 164.255,53.078 163.622,56.114 166.655,56.114 				"/>
				<polygon fill="#4085A6" points="166.475,57.273 163.441,57.273 162.808,60.306 165.84,60.306 				"/>
				<polygon fill="#4085A6" points="165.64,61.363 162.606,61.363 161.972,64.396 165.006,64.396 				"/>
				<polygon fill="#4085A6" points="164.825,65.558 161.792,65.558 161.157,68.59 164.191,68.59 				"/>
				<polygon fill="#4085A6" points="163.968,69.688 160.936,69.688 160.301,72.723 163.333,72.723 				"/>
				<polygon fill="#4085A6" points="163.399,73.91 160.365,73.91 159.732,76.943 162.765,76.943 				"/>
				<polygon fill="#4085A6" points="171.426,32.336 168.393,32.336 167.76,35.369 170.793,35.369 				"/>
				<polygon fill="#4085A6" points="170.57,36.468 167.537,36.468 166.902,39.5 169.936,39.5 				"/>
				<polygon fill="#4085A6" points="174.891,36.462 171.857,36.462 171.224,39.497 174.256,39.497 				"/>
				<polygon fill="#4085A6" points="169.756,40.661 166.722,40.661 166.088,43.693 169.121,43.693 				"/>
				<polygon fill="#4085A6" points="174.076,40.656 171.043,40.656 170.409,43.688 173.442,43.688 				"/>
				<polygon fill="#4085A6" points="178.363,40.613 175.33,40.613 174.696,43.648 177.729,43.648 				"/>
				<polygon fill="#4085A6" points="182.686,40.609 179.65,40.609 179.018,43.643 182.051,43.643 				"/>
				<polygon fill="#4085A6" points="173.281,44.748 170.248,44.748 169.613,47.783 172.646,47.783 				"/>
				<polygon fill="#4085A6" points="177.569,44.707 174.535,44.707 173.901,47.74 176.935,47.74 				"/>
				<polygon fill="#4085A6" points="181.89,44.701 178.855,44.701 178.222,47.736 181.255,47.736 				"/>
				<polygon fill="#4085A6" points="172.467,48.944 169.434,48.944 168.799,51.977 171.832,51.977 				"/>
				<polygon fill="#4085A6" points="176.754,48.9 173.721,48.9 173.087,51.934 176.12,51.934 				"/>
				<polygon fill="#4085A6" points="181.075,48.896 178.041,48.896 177.408,51.929 180.441,51.929 				"/>
				<polygon fill="#4085A6" points="171.61,53.073 168.576,53.073 167.943,56.107 170.977,56.107 				"/>
				<polygon fill="#4085A6" points="175.896,53.032 172.863,53.032 172.23,56.065 175.264,56.065 				"/>
				<polygon fill="#4085A6" points="180.22,53.026 177.187,53.026 176.551,56.062 179.584,56.062 				"/>
				<polygon fill="#4085A6" points="170.795,57.268 167.763,57.268 167.129,60.301 170.161,60.301 				"/>
				<polygon fill="#4085A6" points="169.209,65.417 166.174,65.417 165.541,68.449 168.574,68.449 				"/>
				<polygon fill="#4085A6" points="175.084,57.227 172.051,57.227 171.416,60.26 174.449,60.26 				"/>
				<polygon fill="#4085A6" points="168.289,69.684 165.256,69.684 164.621,72.717 167.654,72.717 				"/>
				<polygon fill="#4085A6" points="167.475,73.878 164.441,73.878 163.807,76.912 166.84,76.912 				"/>
				<polygon fill="#4085A6" points="179.403,57.22 176.37,57.22 175.735,60.255 178.77,60.255 				"/>
				<polygon fill="#4085A6" points="174.248,61.317 171.214,61.317 170.579,64.35 173.612,64.35 				"/>
				<polygon fill="#4085A6" points="178.568,61.312 175.536,61.312 174.901,64.345 177.935,64.345 				"/>
				<polygon fill="#4085A6" points="173.435,65.509 170.401,65.509 169.767,68.543 172.798,68.543 				"/>
				<polygon fill="#4085A6" points="177.755,65.505 174.722,65.505 174.087,68.539 177.12,68.539 				"/>
				<polygon fill="#4085A6" points="182.13,65.505 179.097,65.505 178.463,68.539 181.496,68.539 				"/>
				<polygon fill="#4085A6" points="172.577,69.641 169.543,69.641 168.909,72.674 171.942,72.674 				"/>
				<polygon fill="#4085A6" points="176.897,69.637 173.864,69.637 173.23,72.669 176.264,72.669 				"/>
				<polygon fill="#4085A6" points="181.273,69.637 178.238,69.637 177.605,72.669 180.639,72.669 				"/>
				<polygon fill="#4085A6" points="171.763,73.835 168.729,73.835 168.095,76.869 171.128,76.869 				"/>
				<polygon fill="#4085A6" points="176.083,73.83 173.05,73.83 172.416,76.863 175.449,76.863 				"/>
				<polygon fill="#4085A6" points="180.459,73.83 177.426,73.83 176.791,76.863 179.824,76.863 				"/>
				<polygon fill="#4085A6" points="170.943,77.954 167.909,77.954 167.275,80.987 170.311,80.987 				"/>
				<polygon fill="#4085A6" points="175.264,77.947 172.23,77.947 171.598,80.982 174.631,80.982 				"/>
				<polygon fill="#4085A6" points="170.13,82.147 167.097,82.147 166.462,85.181 169.495,85.181 				"/>
				<polygon fill="#4085A6" points="174.45,82.143 171.417,82.143 170.782,85.176 173.816,85.176 				"/>
				<polygon fill="#4085A6" points="173.594,86.274 170.561,86.274 169.926,89.309 172.959,89.309 				"/>
				<polygon fill="#4085A6" points="192.194,36.411 189.161,36.411 188.527,39.443 191.562,39.443 				"/>
				<polygon fill="#4085A6" points="187.061,40.609 184.026,40.609 183.394,43.643 186.427,43.643 				"/>
				<polygon fill="#4085A6" points="191.382,40.604 188.349,40.604 187.714,43.639 190.747,43.639 				"/>
				<polygon fill="#4085A6" points="195.701,40.667 192.669,40.667 192.034,43.701 195.067,43.701 				"/>
				<polygon fill="#4085A6" points="200.022,40.663 196.989,40.663 196.354,43.696 199.389,43.696 				"/>
				<polygon fill="#4085A6" points="204.398,40.663 201.364,40.663 200.73,43.696 203.764,43.696 				"/>
				<polygon fill="#4085A6" points="212.992,40.617 209.959,40.617 209.323,43.652 212.356,43.652 				"/>
				<polygon fill="#4085A6" points="186.265,44.701 183.231,44.701 182.597,47.736 185.631,47.736 				"/>
				<polygon fill="#4085A6" points="190.585,44.697 187.553,44.697 186.918,47.731 189.95,47.731 				"/>
				<polygon fill="#4085A6" points="194.906,44.761 191.873,44.761 191.238,47.793 194.271,47.793 				"/>
				<polygon fill="#4085A6" points="199.228,44.755 196.193,44.755 195.56,47.788 198.593,47.788 				"/>
				<polygon fill="#4085A6" points="203.603,44.755 200.569,44.755 199.935,47.788 202.968,47.788 				"/>
				<polygon fill="#4085A6" points="207.923,44.751 204.891,44.751 204.256,47.784 207.289,47.784 				"/>
				<polygon fill="#4085A6" points="212.196,44.711 209.162,44.711 208.528,47.745 211.562,47.745 				"/>
				<polygon fill="#4085A6" points="216.517,44.707 213.485,44.707 212.851,47.738 215.884,47.738 				"/>
				<polygon fill="#4085A6" points="220.892,44.707 217.858,44.707 217.225,47.738 220.258,47.738 				"/>
				<polygon fill="#4085A6" points="225.213,44.7 222.18,44.7 221.546,47.736 224.58,47.736 				"/>
				<polygon fill="#4085A6" points="185.452,48.896 182.418,48.896 181.783,51.929 184.814,51.929 				"/>
				<polygon fill="#4085A6" points="189.772,48.89 186.737,48.89 186.104,51.925 189.138,51.925 				"/>
				<polygon fill="#4085A6" points="184.594,53.026 181.561,53.026 180.926,56.062 183.961,56.062 				"/>
				<polygon fill="#4085A6" points="194.093,48.955 191.06,48.955 190.425,51.987 193.457,51.987 				"/>
				<polygon fill="#4085A6" points="198.413,48.948 195.38,48.948 194.747,51.983 197.779,51.983 				"/>
				<polygon fill="#4085A6" points="183.779,57.22 180.745,57.22 180.112,60.255 183.146,60.255 				"/>
				<polygon fill="#4085A6" points="202.788,48.948 199.756,48.948 199.12,51.983 202.153,51.983 				"/>
				<polygon fill="#4085A6" points="207.109,48.945 204.076,48.945 203.441,51.977 206.475,51.977 				"/>
				<polygon fill="#4085A6" points="215.704,48.899 212.669,48.899 212.034,51.932 215.069,51.932 				"/>
				<polygon fill="#4085A6" points="188.915,53.022 185.882,53.022 185.247,56.055 188.281,56.055 				"/>
				<polygon fill="#4085A6" points="193.235,53.085 190.202,53.085 189.568,56.12 192.602,56.12 				"/>
				<polygon fill="#4085A6" points="197.557,53.081 194.523,53.081 193.89,56.114 196.923,56.114 				"/>
				<polygon fill="#4085A6" points="201.933,53.081 198.898,53.081 198.264,56.114 201.298,56.114 				"/>
				<polygon fill="#4085A6" points="206.253,53.075 203.22,53.075 202.586,56.11 205.619,56.11 				"/>
				<polygon fill="#4085A6" points="219.222,53.03 216.188,53.03 215.554,56.065 218.586,56.065 				"/>
				<polygon fill="#4085A6" points="188.1,57.217 185.066,57.217 184.434,60.248 187.466,60.248 				"/>
				<polygon fill="#4085A6" points="192.421,57.279 189.387,57.279 188.754,60.313 191.787,60.313 				"/>
				<polygon fill="#4085A6" points="196.742,57.274 193.709,57.274 193.074,60.307 196.108,60.307 				"/>
				<polygon fill="#4085A6" points="201.117,57.274 198.084,57.274 197.45,60.307 200.483,60.307 				"/>
				<polygon fill="#4085A6" points="205.438,57.269 202.404,57.269 201.771,60.304 204.805,60.304 				"/>
				<polygon fill="#4085A6" points="209.711,57.229 206.678,57.229 206.043,60.263 209.077,60.263 				"/>
				<polygon fill="#4085A6" points="187.267,61.307 184.231,61.307 183.599,64.34 186.632,64.34 				"/>
				<polygon fill="#4085A6" points="191.586,61.369 188.552,61.369 187.917,64.404 190.951,64.404 				"/>
				<polygon fill="#4085A6" points="195.907,61.364 192.873,61.364 192.238,64.398 195.272,64.398 				"/>
				<polygon fill="#4085A6" points="200.282,61.364 197.248,61.364 196.615,64.398 199.647,64.398 				"/>
				<polygon fill="#4085A6" points="204.604,61.359 201.57,61.359 200.936,64.393 203.969,64.393 				"/>
				<polygon fill="#4085A6" points="208.875,61.32 205.844,61.32 205.208,64.353 208.241,64.353 				"/>
				<polygon fill="#4085A6" points="213.196,61.316 210.163,61.316 209.528,64.349 212.563,64.349 				"/>
				<polygon fill="#4085A6" points="186.45,65.5 183.418,65.5 182.783,68.533 185.815,68.533 				"/>
				<polygon fill="#4085A6" points="190.771,65.563 187.738,65.563 187.104,68.596 190.137,68.596 				"/>
				<polygon fill="#4085A6" points="195.093,65.558 192.06,65.558 191.425,68.591 194.458,68.591 				"/>
				<polygon fill="#4085A6" points="199.468,65.558 196.435,65.558 195.8,68.591 198.834,68.591 				"/>
				<polygon fill="#4085A6" points="203.788,65.553 200.756,65.553 200.121,68.587 203.154,68.587 				"/>
				<polygon fill="#4085A6" points="208.061,65.514 205.028,65.514 204.394,68.548 207.427,68.548 				"/>
				<polygon fill="#4085A6" points="212.382,65.506 209.349,65.506 208.714,68.543 211.748,68.543 				"/>
				<polygon fill="#4085A6" points="216.757,65.506 213.724,65.506 213.091,68.543 216.123,68.543 				"/>
				<polygon fill="#4085A6" points="185.595,69.632 182.562,69.632 181.927,72.666 184.96,72.666 				"/>
				<polygon fill="#4085A6" points="189.915,69.695 186.882,69.695 186.248,72.728 189.281,72.728 				"/>
				<polygon fill="#4085A6" points="194.235,69.69 191.202,69.69 190.567,72.724 193.602,72.724 				"/>
				<polygon fill="#4085A6" points="198.61,69.69 195.577,69.69 194.943,72.724 197.977,72.724 				"/>
				<polygon fill="#4085A6" points="202.932,69.686 199.898,69.686 199.264,72.719 202.297,72.719 				"/>
				<polygon fill="#4085A6" points="211.526,69.641 208.493,69.641 207.858,72.674 210.89,72.674 				"/>
				<polygon fill="#4085A6" points="189.101,73.888 186.067,73.888 185.432,76.923 188.467,76.923 				"/>
				<polygon fill="#4085A6" points="193.421,73.884 190.388,73.884 189.755,76.918 192.787,76.918 				"/>
				<polygon fill="#4085A6" points="197.797,73.884 194.763,73.884 194.13,76.918 197.163,76.918 				"/>
				<polygon fill="#4085A6" points="202.118,73.878 199.085,73.878 198.449,76.912 201.484,76.912 				"/>
				<polygon fill="#4085A6" points="206.392,73.839 203.357,73.839 202.724,76.873 205.758,76.873 				"/>
				<polygon fill="#4085A6" points="188.281,78.006 185.247,78.006 184.614,81.041 187.646,81.041 				"/>
				<polygon fill="#4085A6" points="192.602,78.001 189.568,78.001 188.934,81.036 191.967,81.036 				"/>
				<polygon fill="#4085A6" points="196.977,78.001 193.943,78.001 193.309,81.036 196.344,81.036 				"/>
				<polygon fill="#4085A6" points="209.894,77.952 206.859,77.952 206.224,80.986 209.258,80.986 				"/>
				<polygon fill="#4085A6" points="191.788,82.196 188.754,82.196 188.12,85.23 191.154,85.23 				"/>
				<polygon fill="#4085A6" points="196.163,82.196 193.131,82.196 192.496,85.23 195.529,85.23 				"/>
				<polygon fill="#4085A6" points="200.484,82.191 197.451,82.191 196.817,85.225 199.851,85.225 				"/>
				<polygon fill="#4085A6" points="213.453,82.146 210.42,82.146 209.787,85.18 212.818,85.18 				"/>
				<polygon fill="#4085A6" points="190.931,86.327 187.897,86.327 187.263,89.362 190.297,89.362 				"/>
				<polygon fill="#4085A6" points="195.307,86.327 192.272,86.327 191.639,89.362 194.672,89.362 				"/>
				<polygon fill="#4085A6" points="199.629,86.322 196.595,86.322 195.96,89.356 198.994,89.356 				"/>
				<polygon fill="#4085A6" points="208.221,86.279 205.188,86.279 204.554,89.311 207.588,89.311 				"/>
				<polygon fill="#4085A6" points="190.116,90.522 187.083,90.522 186.45,93.555 189.481,93.555 				"/>
				<polygon fill="#4085A6" points="194.491,90.522 191.458,90.522 190.825,93.555 193.857,93.555 				"/>
				<polygon fill="#4085A6" points="198.813,90.516 195.778,90.516 195.146,93.55 198.18,93.55 				"/>
				<polygon fill="#4085A6" points="203.086,90.477 200.052,90.477 199.418,93.51 202.452,93.51 				"/>
				<polygon fill="#4085A6" points="207.408,90.472 204.374,90.472 203.739,93.505 206.772,93.505 				"/>
				<polygon fill="#4085A6" points="193.748,94.704 190.715,94.704 190.08,97.737 193.113,97.737 				"/>
				<polygon fill="#4085A6" points="198.068,94.699 195.035,94.699 194.4,97.732 197.436,97.732 				"/>
				<polygon fill="#4085A6" points="202.342,94.658 199.309,94.658 198.674,97.692 201.707,97.692 				"/>
				<polygon fill="#4085A6" points="206.663,94.653 203.63,94.653 202.995,97.686 206.028,97.686 				"/>
				<polygon fill="#4085A6" points="211.038,94.653 208.005,94.653 207.371,97.686 210.404,97.686 				"/>
				<polygon fill="#4085A6" points="219.679,94.711 216.646,94.711 216.012,97.746 219.045,97.746 				"/>
				<polygon fill="#4085A6" points="224,94.708 220.967,94.708 220.334,97.74 223.366,97.74 				"/>
				<polygon fill="#4085A6" points="228.376,94.708 225.342,94.708 224.708,97.74 227.743,97.74 				"/>
				<polygon fill="#4085A6" points="201.529,98.853 198.493,98.853 197.86,101.886 200.894,101.886 				"/>
				<polygon fill="#4085A6" points="227.562,98.901 224.529,98.901 223.895,101.932 226.929,101.932 				"/>
				<polygon fill="#4085A6" points="231.883,98.896 228.849,98.896 228.216,101.93 231.249,101.93 				"/>
				<polygon fill="#4085A6" points="213.688,102.973 210.655,102.973 210.02,106.006 213.054,106.006 				"/>
				<polygon fill="#4085A6" points="218.009,103.037 214.975,103.037 214.341,106.071 217.374,106.071 				"/>
				<polygon fill="#4085A6" points="222.33,103.032 219.297,103.032 218.662,106.065 221.695,106.065 				"/>
				<polygon fill="#4085A6" points="226.705,103.032 223.672,103.032 223.037,106.065 226.07,106.065 				"/>
				<polygon fill="#4085A6" points="231.026,103.028 227.993,103.028 227.358,106.06 230.392,106.06 				"/>
				<polygon fill="#4085A6" points="235.313,102.987 232.279,102.987 231.646,106.018 234.679,106.018 				"/>
				<polygon fill="#4085A6" points="204.178,107.172 201.144,107.172 200.511,110.206 203.544,110.206 				"/>
				<polygon fill="#4085A6" points="208.554,107.172 205.521,107.172 204.886,110.206 207.919,110.206 				"/>
				<polygon fill="#4085A6" points="212.874,107.167 209.84,107.167 209.207,110.202 212.24,110.202 				"/>
				<polygon fill="#4085A6" points="217.194,107.232 214.161,107.232 213.526,110.264 216.56,110.264 				"/>
				<polygon fill="#4085A6" points="221.516,107.227 218.483,107.227 217.848,110.259 220.882,110.259 				"/>
				<polygon fill="#4085A6" points="225.891,107.227 222.857,107.227 222.223,110.259 225.256,110.259 				"/>
				<polygon fill="#4085A6" points="230.212,107.222 227.179,107.222 226.544,110.255 229.578,110.255 				"/>
				<polygon fill="#4085A6" points="199.099,111.262 196.064,111.262 195.431,114.295 198.463,114.295 				"/>
				<polygon fill="#4085A6" points="198.421,115.448 195.388,115.448 194.753,118.482 197.785,118.482 				"/>
				<polygon fill="#4085A6" points="203.419,111.257 200.385,111.257 199.751,114.292 202.784,114.292 				"/>
				<polygon fill="#4085A6" points="207.739,111.322 204.706,111.322 204.071,114.355 207.104,114.355 				"/>
				<polygon fill="#4085A6" points="212.06,111.317 209.026,111.317 208.393,114.348 211.426,114.348 				"/>
				<polygon fill="#4085A6" points="216.436,111.317 213.402,111.317 212.768,114.348 215.801,114.348 				"/>
				<polygon fill="#4085A6" points="220.757,111.312 217.723,111.312 217.089,114.345 220.122,114.345 				"/>
				<polygon fill="#4085A6" points="225.043,111.268 222.011,111.268 221.377,114.304 224.41,114.304 				"/>
				<polygon fill="#4085A6" points="229.365,111.262 226.331,111.262 225.697,114.297 228.731,114.297 				"/>
				<polygon fill="#4085A6" points="233.741,111.262 230.707,111.262 230.073,114.297 233.106,114.297 				"/>
				<polygon fill="#4085A6" points="202.604,115.451 199.57,115.451 198.938,118.485 201.971,118.485 				"/>
				<polygon fill="#4085A6" points="206.926,115.514 203.893,115.514 203.257,118.547 206.29,118.547 				"/>
				<polygon fill="#4085A6" points="211.246,115.51 208.213,115.51 207.579,118.543 210.612,118.543 				"/>
				<polygon fill="#4085A6" points="215.621,115.51 212.589,115.51 211.954,118.543 214.988,118.543 				"/>
				<polygon fill="#4085A6" points="219.942,115.504 216.909,115.504 216.274,118.538 219.308,118.538 				"/>
				<polygon fill="#4085A6" points="224.229,115.463 221.196,115.463 220.562,118.497 223.596,118.497 				"/>
				<polygon fill="#4085A6" points="228.552,115.458 225.518,115.458 224.882,118.493 227.917,118.493 				"/>
				<polygon fill="#4085A6" points="201.748,119.584 198.714,119.584 198.079,122.616 201.113,122.616 				"/>
				<polygon fill="#4085A6" points="206.068,119.646 203.034,119.646 202.4,122.68 205.435,122.68 				"/>
				<polygon fill="#4085A6" points="214.764,119.641 211.731,119.641 211.098,122.675 214.131,122.675 				"/>
				<polygon fill="#4085A6" points="219.086,119.635 216.053,119.635 215.418,122.671 218.452,122.671 				"/>
				<polygon fill="#4085A6" points="223.373,119.594 220.34,119.594 219.704,122.626 222.739,122.626 				"/>
				<polygon fill="#4085A6" points="245.032,119.645 241.999,119.645 241.364,122.676 244.397,122.676 				"/>
				<polygon fill="#4085A6" points="230.963,126.7 227.93,126.7 227.295,129.733 230.33,129.733 				"/>
				<polygon fill="#4085A6" points="169.959,61.358 166.928,61.358 166.293,64.392 169.326,64.392 				"/>
				<polygon fill="#4085A6" points="213.992,123.604 210.959,123.604 210.325,126.637 213.357,126.637 				"/>
				<polygon fill="#4085A6" points="235.574,123.78 232.542,123.78 231.908,126.811 234.942,126.811 				"/>
				<polygon fill="#4085A6" points="239.896,123.841 236.863,123.841 236.229,126.875 239.262,126.875 				"/>
				<polygon fill="#4085A6" points="184.781,73.825 181.748,73.825 181.114,76.858 184.147,76.858 				"/>
				<polygon fill="#4085A6" points="182.943,61.312 179.91,61.312 179.276,64.345 182.31,64.345 				"/>
			</g>
		</g>
	</g>
</g>
<path fill="#F5F5F5" d="M35.009,172.573l-13.73-18.795v18.795h-8.375v-32.477h8.618l13.146,17.869v-17.869h8.424v32.477H35.009z"/>
<path fill="#F5F5F5" d="M63.546,172.573v-32.477h23.81v7.303H71.92v5.064h15.095v7.304H71.92v5.502h15.436v7.304H63.546z"/>
<path fill="#F5F5F5" d="M131.617,172.573l-4.918-20.353l-4.918,20.353h-8.861l-9.3-32.477h9.397l4.917,21.667l5.551-21.667h6.428
	l5.551,21.667l4.869-21.667h9.446l-9.301,32.477H131.617z"/>
<path fill="#F5F5F5" d="M164.682,167.996l4.432-6.524c2.337,2.338,5.939,4.285,10.419,4.285c2.824,0,4.577-0.975,4.577-2.581
	c0-4.284-18.356-0.73-18.356-13.243c0-5.454,4.577-10.323,12.903-10.323c5.21,0,9.738,1.558,13.195,4.528l-4.577,6.281
	c-2.727-2.289-6.281-3.408-9.495-3.408c-2.434,0-3.505,0.828-3.505,2.24c0,3.992,18.356,0.973,18.356,13.049
	c0,6.524-4.82,10.857-13.536,10.857C172.521,173.157,167.944,171.063,164.682,167.996z"/>
</svg>
