<?xml version="1.0" encoding="utf-8"?>
<!-- Generator: Adobe Illustrator 15.1.0, SVG Export Plug-In  -->
<!DOCTYPE svg PUBLIC "-//W3C//DTD SVG 1.1//EN" "http://www.w3.org/Graphics/SVG/1.1/DTD/svg11.dtd" [
	<!ENTITY ns_flows "http://ns.adobe.com/Flows/1.0/">
]>
<svg version="1.1"
	 xmlns="http://www.w3.org/2000/svg" xmlns:xlink="http://www.w3.org/1999/xlink" xmlns:a="http://ns.adobe.com/AdobeSVGViewerExtensions/3.0/"
	 x="0px" y="0px" width="48px" height="48px" viewBox="0 0 48 48" enable-background="new 0 0 48 48" xml:space="preserve">
<defs>
</defs>
<path fill="#FFFFFF" d="M47.558,41.441L34.353,28.236c4.387-7.146,3.506-16.613-2.685-22.804c-7.245-7.243-18.99-7.243-26.234,0
	c-7.244,7.245-7.245,18.99,0,26.229c6.031,6.029,15.171,7.021,22.247,3.021l13.317,13.312L47.558,41.441z M9.425,27.675
	c-5.039-5.039-5.038-13.21,0-18.249c5.041-5.039,13.211-5.041,18.25-0.002c5.039,5.041,5.038,13.212,0,18.251
	S14.464,32.714,9.425,27.675z"/>
</svg>
